<svg id="svg" version="1.1" xmlns="http://www.w3.org/2000/svg" xmlns:xlink="http://www.w3.org/1999/xlink" width="400" height="400" viewBox="0, 0, 400,400"><g id="svgg"><path id="path0" d="M193.549 17.764 C 193.467 17.835,191.240 18.011,188.600 18.155 C 177.864 18.741,164.207 20.748,157.600 22.709 C 156.170 23.134,153.650 23.797,152.000 24.183 C 146.679 25.429,136.083 29.108,130.600 31.612 C 130.160 31.813,128.866 32.336,127.724 32.774 C 126.582 33.212,122.172 35.301,117.924 37.417 C 109.770 41.477,109.537 41.602,107.007 43.240 C 106.123 43.812,104.590 44.730,103.600 45.278 C 101.948 46.194,95.992 50.350,89.957 54.800 C 88.614 55.790,86.612 57.259,85.508 58.064 C 77.820 63.668,58.837 83.513,53.533 91.490 C 52.800 92.593,50.914 95.274,49.341 97.448 C 47.769 99.622,46.029 102.210,45.474 103.200 C 44.920 104.190,43.542 106.530,42.412 108.400 C 39.923 112.521,32.400 127.771,32.400 128.696 C 32.400 128.829,31.880 130.031,31.245 131.368 C 30.041 133.905,28.307 138.387,27.306 141.551 C 24.824 149.396,20.770 165.390,20.399 168.800 C 20.220 170.450,19.784 173.637,19.431 175.882 C 16.573 194.042,17.572 218.402,21.997 238.400 C 22.459 240.490,23.091 243.572,23.401 245.249 C 23.711 246.926,24.229 248.906,24.552 249.649 C 24.876 250.392,25.957 253.520,26.956 256.600 C 29.020 262.967,30.511 267.113,31.197 268.395 C 31.456 268.878,32.027 270.382,32.466 271.737 C 32.905 273.092,33.560 274.650,33.920 275.200 C 34.280 275.750,35.433 278.073,36.481 280.362 C 37.530 282.650,38.669 284.834,39.013 285.214 C 39.357 285.594,39.817 286.551,40.034 287.339 C 40.252 288.128,40.652 289.004,40.923 289.287 C 41.749 290.146,44.000 293.840,44.000 294.335 C 44.000 294.591,44.180 294.800,44.400 294.800 C 44.620 294.800,44.800 295.027,44.800 295.305 C 44.800 295.582,45.425 296.707,46.190 297.805 C 46.954 298.902,48.596 301.330,49.837 303.200 C 51.079 305.070,52.504 307.050,53.005 307.600 C 53.506 308.150,54.429 309.337,55.058 310.237 C 56.107 311.740,58.914 315.383,60.103 316.786 C 60.376 317.108,61.742 318.728,63.137 320.386 C 66.534 324.422,75.364 333.013,82.000 338.735 C 84.970 341.297,87.544 343.619,87.720 343.896 C 87.896 344.173,88.292 344.400,88.599 344.400 C 88.907 344.400,89.663 344.875,90.279 345.456 C 90.896 346.037,92.300 347.116,93.400 347.856 C 94.500 348.595,95.850 349.540,96.400 349.957 C 98.681 351.683,109.412 358.486,111.715 359.665 C 122.451 365.162,131.519 369.302,136.647 371.046 C 138.381 371.636,141.060 372.553,142.600 373.085 C 147.533 374.787,160.878 378.388,162.280 378.395 C 162.765 378.398,164.205 378.673,165.480 379.006 C 166.756 379.339,169.240 379.783,171.000 379.992 C 172.760 380.201,176.630 380.718,179.600 381.140 C 188.484 382.404,206.588 382.526,216.200 381.388 C 217.300 381.257,219.010 381.091,220.000 381.017 C 224.315 380.696,240.184 378.144,241.182 377.610 C 241.522 377.428,242.700 377.151,243.800 376.993 C 244.900 376.836,246.340 376.465,247.000 376.168 C 247.660 375.871,249.010 375.449,250.000 375.231 C 252.123 374.763,261.273 371.805,263.000 371.028 C 263.660 370.732,264.650 370.357,265.200 370.197 C 265.750 370.036,267.100 369.502,268.200 369.011 C 269.300 368.519,271.640 367.533,273.400 366.820 C 281.550 363.516,300.726 352.503,308.062 346.914 C 314.819 341.765,315.506 341.197,322.178 335.235 C 326.162 331.676,338.883 318.428,340.273 316.392 C 340.645 315.847,341.698 314.500,342.612 313.400 C 346.519 308.700,355.233 296.155,356.417 293.527 C 357.040 292.144,357.796 290.891,358.485 290.103 C 359.664 288.753,370.377 266.317,370.417 265.115 C 370.426 264.832,370.854 263.430,371.367 262.000 C 373.106 257.159,373.532 255.813,375.734 248.200 C 376.943 244.020,378.049 239.449,378.193 238.042 C 378.336 236.635,378.692 234.835,378.984 234.042 C 381.155 228.154,382.825 201.004,381.829 187.800 C 381.374 181.766,380.767 176.160,380.424 174.813 C 380.226 174.036,379.938 172.410,379.785 171.200 C 379.632 169.990,379.440 168.640,379.359 168.200 C 379.277 167.760,378.848 165.420,378.405 163.000 C 377.962 160.580,377.340 157.700,377.023 156.600 C 376.705 155.500,376.272 153.880,376.059 153.000 C 375.227 149.549,371.531 138.170,369.693 133.400 C 367.007 126.427,359.125 110.170,357.960 109.200 C 357.828 109.090,357.486 108.550,357.200 108.000 C 356.584 106.814,354.077 102.904,350.437 97.449 C 348.987 95.276,347.147 92.506,346.348 91.294 C 345.550 90.082,344.278 88.440,343.523 87.645 C 342.768 86.850,341.724 85.570,341.203 84.800 C 338.599 80.951,328.282 70.133,321.800 64.455 C 319.380 62.335,316.950 60.179,316.400 59.664 C 315.850 59.149,313.761 57.489,311.759 55.976 C 309.756 54.462,307.889 52.949,307.610 52.612 C 307.331 52.275,306.919 52.000,306.696 52.000 C 306.473 52.000,305.028 51.145,303.485 50.100 C 299.221 47.212,299.069 47.112,296.343 45.430 C 294.944 44.567,293.144 43.352,292.342 42.730 C 291.541 42.109,290.623 41.600,290.302 41.600 C 289.982 41.600,288.994 41.074,288.107 40.432 C 286.325 39.141,277.427 34.774,272.051 32.552 C 270.153 31.767,268.396 30.958,268.148 30.753 C 267.899 30.549,266.668 30.113,265.412 29.786 C 264.156 29.459,262.290 28.850,261.264 28.433 C 258.683 27.383,248.111 24.043,245.308 23.392 C 244.039 23.098,242.190 22.667,241.200 22.435 C 238.706 21.852,233.473 20.841,230.600 20.389 C 229.280 20.181,226.940 19.741,225.400 19.412 C 220.876 18.445,194.350 17.073,193.549 17.764 M213.353 54.196 C 220.550 54.911,227.252 55.956,227.780 56.447 C 227.989 56.641,228.504 56.800,228.925 56.800 C 229.346 56.800,231.232 57.173,233.115 57.628 C 234.999 58.083,237.003 58.527,237.570 58.614 C 238.416 58.743,245.001 60.525,248.200 61.490 C 248.640 61.623,249.374 61.972,249.832 62.267 C 250.289 62.562,251.615 63.085,252.777 63.430 C 253.940 63.775,256.785 64.945,259.101 66.029 C 261.417 67.113,263.491 68.000,263.710 68.000 C 265.630 68.000,286.004 80.967,291.637 85.774 C 305.020 97.194,313.852 106.741,321.070 117.592 C 322.024 119.026,323.046 120.560,323.341 121.000 C 325.034 123.527,326.831 126.448,327.771 128.200 C 328.360 129.300,329.012 130.470,329.219 130.800 C 329.712 131.585,334.400 141.594,334.400 141.861 C 334.400 142.071,336.391 146.850,337.374 149.000 C 337.676 149.660,338.407 151.820,339.000 153.800 C 339.592 155.780,340.319 158.120,340.615 159.000 C 340.911 159.880,341.625 162.670,342.203 165.200 C 342.780 167.730,343.499 170.880,343.799 172.200 C 344.366 174.687,345.245 181.191,345.977 188.314 C 348.093 208.898,344.185 233.816,335.335 256.161 C 334.124 259.220,332.733 262.370,332.244 263.161 C 331.756 263.953,330.837 265.680,330.203 267.000 C 323.560 280.822,308.538 300.052,296.722 309.859 C 295.171 311.147,292.779 313.190,291.406 314.400 C 290.033 315.610,287.670 317.470,286.155 318.532 L 283.400 320.464 283.273 318.976 C 283.202 318.158,282.894 317.105,282.587 316.636 C 282.280 316.167,281.908 314.708,281.762 313.392 C 281.615 312.076,281.248 310.393,280.947 309.651 C 280.646 308.909,280.400 307.874,280.400 307.351 C 280.400 306.828,280.224 306.400,280.008 306.400 C 279.501 306.400,278.000 303.462,278.000 302.470 C 278.000 302.051,277.649 301.262,277.220 300.716 C 276.791 300.171,276.450 299.382,276.463 298.963 C 276.475 298.543,276.257 297.642,275.977 296.959 C 275.334 295.387,275.724 294.235,276.805 294.517 C 277.899 294.803,277.806 294.433,276.340 292.654 C 275.647 291.813,274.866 290.504,274.605 289.744 C 274.069 288.184,267.846 281.651,265.625 280.316 C 264.841 279.845,263.120 278.531,261.800 277.395 C 257.461 273.663,256.552 273.429,254.638 275.554 C 253.831 276.450,251.835 276.703,251.380 275.968 C 251.233 275.730,251.493 275.270,251.957 274.945 C 252.420 274.620,252.800 274.017,252.800 273.605 C 252.800 272.723,254.776 271.200,255.919 271.200 C 257.132 271.200,257.401 269.955,256.357 269.168 L 255.476 268.503 256.906 268.031 C 258.674 267.448,259.227 266.804,259.605 264.893 C 259.767 264.072,260.025 263.101,260.179 262.736 C 260.375 262.270,260.211 261.994,259.628 261.809 C 258.704 261.516,258.819 259.964,259.854 258.769 C 260.154 258.421,260.400 257.770,260.400 257.322 C 260.400 256.874,260.750 256.063,261.178 255.519 C 261.868 254.642,261.930 254.100,261.724 250.765 C 261.443 246.213,261.213 245.704,259.295 245.388 C 257.886 245.157,257.049 244.869,254.889 243.873 C 254.131 243.523,253.876 243.599,253.366 244.327 C 252.633 245.374,249.622 245.527,248.000 244.600 C 246.906 243.975,245.200 243.808,245.200 244.326 C 245.200 244.505,244.570 244.952,243.800 245.319 C 242.919 245.740,242.400 246.271,242.400 246.754 C 242.400 247.639,238.024 251.600,237.046 251.600 C 236.247 251.600,236.248 251.546,237.056 249.852 C 237.416 249.096,238.136 248.284,238.656 248.047 C 239.175 247.811,239.600 247.336,239.600 246.992 C 239.600 246.261,239.989 245.762,242.334 243.484 C 244.469 241.410,245.468 240.832,246.952 240.814 C 247.696 240.805,248.660 240.297,249.679 239.376 C 251.701 237.550,253.333 237.560,253.525 239.400 C 253.669 240.788,254.547 241.600,255.905 241.600 C 256.429 241.600,257.104 241.846,257.405 242.148 C 258.257 243.000,260.698 242.127,260.548 241.024 C 260.487 240.571,260.349 235.880,260.242 230.600 C 260.135 225.320,259.835 219.225,259.574 217.056 C 259.200 213.938,259.206 212.794,259.603 211.592 C 259.879 210.755,259.992 209.621,259.854 209.072 C 259.660 208.299,259.921 207.691,261.004 206.395 C 262.642 204.434,262.981 203.362,262.677 201.095 C 262.472 199.569,262.568 199.339,263.897 198.190 C 266.029 196.348,265.541 195.403,262.636 195.744 C 260.179 196.033,257.967 195.313,256.523 193.754 C 256.036 193.229,255.329 192.800,254.951 192.800 C 254.175 192.800,252.800 191.690,252.800 191.064 C 252.800 190.837,252.428 190.256,251.974 189.772 L 251.147 188.892 252.371 188.021 C 253.946 186.899,256.196 187.004,256.207 188.200 C 256.214 188.886,256.444 188.983,257.830 188.882 C 259.916 188.729,261.600 189.944,261.600 191.600 C 261.600 193.837,262.886 194.450,264.446 192.956 C 265.584 191.865,266.400 191.949,266.400 193.157 C 266.400 193.547,266.518 193.985,266.663 194.130 C 267.149 194.615,268.000 193.514,268.000 192.400 C 268.000 191.794,268.270 191.074,268.600 190.800 C 269.346 190.181,269.368 189.182,268.658 188.211 C 268.202 187.588,268.202 187.304,268.655 186.435 C 268.952 185.866,269.196 185.085,269.198 184.700 C 269.199 184.269,269.505 184.000,269.994 184.000 C 271.195 184.000,272.963 181.115,272.668 179.639 C 272.423 178.417,273.492 177.300,275.400 176.783 C 275.840 176.664,276.529 176.034,276.931 175.383 C 277.981 173.683,280.104 170.108,283.359 164.555 C 287.785 157.007,286.692 157.832,292.583 157.600 C 297.447 157.409,297.709 157.355,298.563 156.361 C 299.576 155.183,301.209 154.600,303.071 154.752 C 304.475 154.867,305.200 154.021,305.200 152.268 C 305.200 151.258,302.797 149.379,300.300 148.435 C 299.695 148.207,299.200 147.835,299.200 147.610 C 299.200 147.384,298.807 147.200,298.326 147.200 C 296.609 147.200,294.000 145.611,294.000 144.564 C 294.000 143.999,293.766 143.600,293.433 143.600 C 293.122 143.600,292.807 143.447,292.733 143.260 C 292.367 142.326,283.796 138.174,280.758 137.459 C 280.185 137.324,275.191 137.029,269.659 136.802 L 259.602 136.391 251.301 139.866 C 246.735 141.777,242.628 143.669,242.174 144.070 C 241.720 144.472,241.083 144.800,240.759 144.800 C 240.434 144.800,239.463 145.160,238.600 145.600 C 237.737 146.040,236.619 146.400,236.115 146.400 C 235.612 146.400,235.200 146.580,235.200 146.800 C 235.200 147.020,234.897 147.200,234.526 147.200 C 234.156 147.200,233.121 147.534,232.226 147.941 C 231.332 148.349,229.340 149.187,227.800 149.804 C 224.458 151.141,223.189 152.229,221.790 154.957 C 221.214 156.080,220.170 157.364,219.471 157.809 C 218.437 158.467,218.192 158.893,218.159 160.097 C 218.136 160.911,217.873 161.871,217.574 162.232 C 216.941 162.994,217.825 163.873,219.600 164.244 C 220.150 164.359,221.078 164.711,221.662 165.026 C 222.246 165.342,223.106 165.600,223.574 165.600 C 224.042 165.600,224.541 165.915,224.683 166.300 C 225.033 167.247,225.601 167.587,226.851 167.594 C 229.233 167.608,229.210 169.658,226.822 170.136 C 225.567 170.387,225.282 170.646,223.836 172.857 C 222.444 174.984,222.162 176.674,223.036 177.639 C 223.857 178.546,223.510 179.084,221.400 180.175 C 220.622 180.577,220.446 180.796,220.900 180.798 C 221.285 180.799,221.600 180.986,221.600 181.213 C 221.600 181.916,220.392 182.131,219.404 181.602 C 218.879 181.321,218.006 181.212,217.434 181.356 L 216.406 181.614 217.176 183.050 C 217.599 183.840,218.325 184.752,218.789 185.077 C 219.338 185.462,219.551 185.924,219.399 186.402 C 219.236 186.915,219.417 187.215,220.000 187.400 C 220.612 187.594,220.766 187.876,220.581 188.460 C 220.393 189.051,220.544 189.313,221.164 189.475 C 221.624 189.595,222.000 189.856,222.000 190.055 C 222.000 190.254,222.451 190.623,223.003 190.874 C 223.554 191.125,223.975 191.526,223.938 191.765 C 223.902 192.004,224.089 192.730,224.355 193.377 C 225.307 195.694,225.246 199.263,224.257 199.122 C 223.658 199.037,223.362 198.669,223.273 197.900 C 223.118 196.553,221.661 196.370,220.893 197.600 C 220.285 198.573,219.312 198.625,218.331 197.738 C 217.189 196.704,217.373 195.545,218.658 195.685 C 220.326 195.866,220.131 195.096,218.215 193.933 C 216.843 193.101,216.504 192.689,216.670 192.056 C 216.837 191.417,216.581 191.119,215.467 190.654 C 214.690 190.329,213.790 189.553,213.468 188.931 C 213.145 188.308,212.503 187.456,212.041 187.037 C 211.578 186.618,211.200 185.865,211.200 185.362 C 211.200 184.859,211.020 184.336,210.800 184.200 C 210.580 184.064,210.400 183.331,210.400 182.571 C 210.400 181.519,210.092 180.914,209.110 180.036 C 207.894 178.949,207.852 178.824,208.382 177.834 C 208.814 177.027,208.834 176.674,208.472 176.312 C 208.212 176.052,208.000 175.520,208.000 175.129 C 208.000 174.738,207.550 174.124,207.000 173.763 C 206.450 173.403,206.000 172.888,206.000 172.618 C 206.000 171.851,204.000 171.071,201.717 170.949 C 198.594 170.782,193.736 176.388,196.400 177.084 C 197.545 177.383,197.387 178.283,196.071 178.963 C 195.450 179.284,194.708 179.829,194.422 180.174 C 194.136 180.518,193.315 180.800,192.597 180.800 C 190.739 180.800,189.655 182.414,190.572 183.814 C 191.398 185.074,191.370 185.200,190.270 185.200 C 187.538 185.200,185.417 192.698,187.326 195.605 C 188.919 198.030,189.188 198.592,189.194 199.500 C 189.197 199.995,189.367 200.400,189.572 200.400 C 190.121 200.400,192.400 203.922,192.400 204.771 C 192.400 206.210,193.620 208.390,194.753 208.976 C 195.385 209.303,196.009 209.847,196.139 210.185 C 196.461 211.025,197.975 210.963,198.241 210.100 C 198.671 208.710,199.093 208.214,200.035 207.992 C 201.226 207.711,201.986 206.271,201.994 204.280 C 202.004 201.825,204.129 198.400,205.643 198.400 C 206.871 198.400,206.849 199.756,205.580 202.376 C 202.712 208.296,206.581 213.303,213.500 212.623 C 217.447 212.236,216.618 214.221,212.600 214.778 C 211.179 214.975,210.985 215.135,210.865 216.200 C 210.790 216.860,210.145 218.120,209.431 219.000 C 207.355 221.560,207.188 222.017,207.860 223.316 C 208.339 224.243,208.355 224.572,207.944 225.068 C 207.665 225.403,207.383 226.034,207.317 226.469 C 207.022 228.397,205.962 229.346,205.320 228.258 C 205.144 227.961,204.595 227.504,204.100 227.244 C 203.605 226.984,203.197 226.553,203.194 226.286 C 203.181 225.285,202.503 224.713,201.650 224.984 C 200.451 225.365,200.595 226.454,202.026 227.825 C 203.250 228.997,203.371 230.047,202.534 232.228 C 202.382 232.624,202.605 232.801,203.257 232.803 C 205.079 232.808,206.587 236.156,205.599 238.002 C 204.875 239.354,205.893 242.795,207.551 244.600 C 209.668 246.905,210.800 248.646,210.800 249.596 C 210.800 250.052,211.034 250.515,211.321 250.625 C 211.703 250.772,211.817 251.748,211.749 254.312 C 211.685 256.709,211.840 258.207,212.247 259.100 C 213.242 261.290,213.631 260.884,214.390 256.861 C 215.050 253.368,217.591 250.609,218.409 252.500 C 218.623 252.995,219.022 253.714,219.296 254.099 C 219.694 254.657,219.693 254.960,219.291 255.603 C 218.877 256.265,218.896 256.575,219.397 257.340 C 220.078 258.378,218.877 260.537,216.643 262.295 C 215.397 263.275,215.258 264.785,216.387 265.081 C 216.819 265.194,217.276 265.609,217.401 266.003 C 217.526 266.398,218.078 266.833,218.627 266.971 C 221.017 267.571,221.718 270.428,219.927 272.275 C 219.227 272.997,218.732 273.656,218.827 273.740 C 218.922 273.824,219.810 274.337,220.800 274.880 C 221.790 275.423,222.662 276.212,222.737 276.634 C 222.812 277.055,223.326 277.830,223.880 278.356 C 224.704 279.140,224.845 279.566,224.659 280.712 C 224.534 281.482,224.631 282.484,224.874 282.939 C 225.234 283.611,225.182 283.843,224.597 284.183 C 224.201 284.412,223.280 285.109,222.550 285.731 C 221.821 286.353,221.037 286.747,220.809 286.606 C 220.581 286.465,220.279 286.649,220.139 287.015 C 219.998 287.381,220.113 287.822,220.393 287.996 C 221.006 288.375,220.584 289.200,219.776 289.200 C 219.459 289.200,219.185 289.335,219.168 289.500 C 218.918 291.799,218.589 293.370,218.238 293.939 C 218.123 294.124,218.217 294.952,218.445 295.779 C 218.811 297.105,218.756 297.395,217.979 298.223 C 217.370 298.871,217.171 299.446,217.337 300.081 C 217.875 302.136,217.166 303.893,214.754 306.479 C 213.461 307.866,212.402 309.090,212.399 309.200 C 212.389 309.690,209.818 310.800,208.694 310.800 C 208.011 310.800,206.662 311.183,205.696 311.650 C 204.257 312.347,203.761 312.419,202.951 312.050 C 202.407 311.803,201.566 311.600,201.081 311.600 C 200.561 311.600,199.665 310.985,198.896 310.100 L 197.592 308.600 196.896 309.542 C 196.513 310.060,195.840 310.820,195.400 311.231 C 194.021 312.518,191.235 315.352,190.200 316.521 C 189.282 317.558,189.005 317.637,186.504 317.573 C 184.993 317.534,183.315 317.729,182.700 318.016 C 181.654 318.503,181.517 318.440,179.893 316.720 C 178.954 315.726,177.800 314.791,177.329 314.641 C 175.373 314.020,175.455 313.372,177.735 311.403 C 180.044 309.409,180.972 306.505,179.865 304.733 C 179.529 304.195,179.631 303.683,180.316 302.465 C 180.802 301.599,181.200 300.598,181.200 300.239 C 181.200 298.561,182.216 296.491,183.361 295.833 L 184.567 295.141 182.821 293.529 C 180.982 291.831,181.047 291.842,177.476 292.649 C 176.552 292.857,176.312 292.751,176.129 292.051 C 175.959 291.398,175.597 291.200,174.577 291.200 C 173.846 291.200,173.136 291.020,173.000 290.800 C 172.864 290.580,172.252 290.400,171.641 290.400 C 170.860 290.400,170.400 290.119,170.098 289.456 C 168.803 286.613,163.583 289.900,164.698 292.855 C 165.080 293.866,165.034 294.097,164.371 294.511 C 163.441 295.092,163.395 295.562,164.211 296.159 C 164.968 296.712,165.180 298.849,164.502 299.089 C 164.229 299.186,163.839 298.829,163.636 298.295 C 163.264 297.316,162.167 296.717,159.601 296.091 C 158.819 295.900,158.199 295.497,158.193 295.175 C 158.170 293.773,157.518 292.800,156.602 292.800 C 155.669 292.800,154.167 290.700,154.600 290.000 C 154.703 289.834,154.246 289.589,153.584 289.457 C 151.677 289.075,151.657 288.124,153.520 286.461 C 154.420 285.657,155.212 284.648,155.280 284.218 C 155.509 282.775,161.600 281.949,161.600 283.360 C 161.600 283.683,161.987 284.069,162.459 284.219 C 162.931 284.369,163.938 285.111,164.695 285.868 C 166.339 287.512,167.062 287.458,168.306 285.597 C 168.820 284.829,169.592 284.037,170.020 283.839 C 170.911 283.427,170.947 283.240,170.413 281.835 C 170.124 281.075,169.566 280.702,168.200 280.358 C 166.141 279.840,165.228 278.730,166.049 277.741 C 166.623 277.050,163.461 273.866,160.761 272.418 C 157.914 270.891,157.423 269.234,159.255 267.343 L 160.511 266.047 159.455 264.793 C 158.162 263.256,158.162 263.248,159.417 261.895 C 159.977 261.291,160.398 260.573,160.353 260.299 C 160.244 259.631,161.044 257.743,161.575 257.415 C 161.809 257.271,162.000 256.837,162.000 256.450 C 162.000 256.044,162.579 255.472,163.374 255.093 L 164.749 254.437 167.074 256.619 C 168.353 257.818,169.698 258.800,170.063 258.800 C 170.913 258.800,173.990 262.014,174.655 263.596 C 175.222 264.944,175.284 264.877,171.629 266.846 C 168.101 268.747,169.562 269.364,174.780 268.177 C 176.285 267.835,177.817 267.223,178.183 266.819 C 178.974 265.945,180.690 266.231,181.369 267.350 C 182.103 268.558,178.358 271.526,175.906 271.681 L 174.011 271.800 175.306 272.682 C 177.341 274.069,185.469 275.049,186.593 274.042 C 187.037 273.645,187.715 273.208,188.100 273.072 C 189.051 272.736,188.987 272.000,188.006 272.000 C 187.570 272.000,186.625 271.473,185.906 270.828 L 184.600 269.656 185.324 268.301 C 185.942 267.144,186.219 266.971,187.219 267.117 C 187.863 267.212,188.842 267.176,189.395 267.037 C 190.678 266.715,190.732 265.600,189.464 265.600 C 188.842 265.600,188.368 265.248,188.049 264.548 C 187.489 263.320,187.443 263.395,189.218 262.652 C 190.254 262.219,190.906 261.490,191.822 259.737 C 193.127 257.242,195.038 256.604,196.273 258.249 C 196.933 259.129,197.600 258.581,197.600 257.160 C 197.600 256.505,197.989 255.210,198.464 254.284 C 199.890 251.503,198.947 246.800,196.963 246.800 C 196.494 246.800,196.387 246.381,196.480 244.911 C 196.666 241.985,192.732 240.866,192.324 243.729 C 192.227 244.413,191.857 244.646,190.600 244.814 C 189.720 244.932,188.779 245.165,188.508 245.333 C 187.501 245.956,179.364 246.009,178.556 245.397 C 178.140 245.083,177.517 244.820,177.172 244.813 C 176.827 244.806,176.153 244.350,175.675 243.800 C 175.197 243.250,174.624 242.800,174.403 242.800 C 173.621 242.800,174.013 241.977,175.010 241.522 C 176.326 240.923,176.142 240.514,174.022 239.323 C 171.883 238.122,168.647 238.308,167.555 239.696 C 166.827 240.621,166.000 240.345,166.000 239.176 C 166.000 238.027,165.137 238.227,163.970 239.646 C 161.819 242.262,160.479 240.527,162.390 237.600 C 164.579 234.250,164.436 234.357,166.800 234.315 C 168.612 234.283,169.232 234.075,170.314 233.138 C 171.037 232.512,172.039 232.000,172.542 232.000 C 173.083 232.000,174.234 231.256,175.355 230.181 C 176.712 228.881,177.468 228.431,178.006 228.602 C 179.995 229.233,183.394 225.719,182.138 224.331 C 180.817 222.872,183.907 221.280,185.944 222.370 C 186.386 222.606,187.209 222.800,187.774 222.800 C 188.971 222.800,189.088 223.482,188.190 225.219 C 187.429 226.690,188.092 227.912,190.533 229.541 C 191.406 230.123,192.359 230.777,192.652 230.993 C 194.107 232.067,194.640 230.059,193.216 228.870 C 191.694 227.599,191.740 226.400,193.311 226.400 C 196.087 226.400,196.038 224.896,193.190 222.643 L 191.220 221.085 192.797 219.509 L 194.374 217.932 193.512 216.766 C 193.038 216.125,192.392 215.600,192.078 215.600 C 191.763 215.600,190.878 215.049,190.111 214.376 C 188.834 213.254,188.659 213.204,188.027 213.776 C 186.999 214.706,186.503 214.543,185.982 213.100 C 185.507 211.786,183.067 211.155,182.340 212.158 C 182.198 212.355,181.748 212.370,181.340 212.191 C 180.933 212.012,179.145 211.912,177.366 211.970 C 174.402 212.067,174.035 211.991,172.966 211.063 L 171.800 210.051 172.756 208.225 C 173.281 207.221,173.923 206.400,174.181 206.400 C 174.440 206.400,174.957 205.815,175.330 205.100 C 175.702 204.385,176.374 203.194,176.821 202.454 C 177.269 201.714,177.606 200.814,177.571 200.454 C 177.452 199.226,177.600 198.841,178.610 197.752 C 179.165 197.153,179.717 196.198,179.835 195.631 C 179.954 195.064,180.435 193.610,180.903 192.400 C 181.908 189.801,182.048 185.643,181.196 183.701 C 180.684 182.536,180.700 182.277,181.348 181.181 C 182.456 179.305,182.050 178.934,178.648 178.716 C 174.971 178.480,174.242 177.990,174.517 175.941 C 174.707 174.528,173.987 173.200,173.032 173.200 C 172.864 173.200,172.269 172.841,171.711 172.401 C 170.121 171.151,167.669 170.614,166.860 171.340 C 166.497 171.666,165.660 171.993,165.000 172.067 C 164.091 172.168,163.632 172.539,163.107 173.600 C 162.726 174.370,161.511 175.852,160.407 176.894 C 158.878 178.338,158.400 179.070,158.400 179.971 C 158.400 180.621,158.209 181.271,157.977 181.414 C 157.740 181.561,157.661 182.167,157.797 182.787 C 157.979 183.614,157.868 183.965,157.364 184.158 C 156.418 184.521,154.672 183.310,154.981 182.505 C 155.129 182.118,154.816 181.443,154.180 180.779 C 153.517 180.087,153.293 179.590,153.567 179.420 C 153.805 179.273,154.000 178.733,154.000 178.219 C 154.000 177.706,154.270 177.182,154.600 177.055 C 154.930 176.929,155.200 176.571,155.200 176.262 C 155.200 175.952,154.930 175.474,154.600 175.200 C 153.570 174.345,153.802 171.022,154.945 170.273 C 155.464 169.933,155.997 169.116,156.128 168.459 C 156.271 167.747,156.693 167.161,157.174 167.008 C 157.618 166.867,158.916 165.773,160.059 164.576 C 162.385 162.138,162.352 162.150,164.263 163.057 C 165.300 163.549,165.761 163.599,166.103 163.257 C 166.355 163.005,166.884 162.800,167.280 162.800 C 167.676 162.800,168.000 162.620,168.000 162.400 C 168.000 160.650,171.974 159.656,172.800 161.200 C 173.041 161.650,173.638 162.000,174.165 162.000 C 174.680 162.000,175.342 162.289,175.635 162.643 C 176.037 163.127,176.615 163.233,177.984 163.073 C 179.709 162.871,179.870 162.941,181.200 164.459 C 183.408 166.980,185.215 167.029,187.742 164.638 C 188.810 163.627,189.944 162.800,190.262 162.800 C 191.275 162.800,193.361 161.560,194.600 160.222 C 197.092 157.529,202.479 156.782,204.619 158.832 C 205.907 160.066,211.173 160.614,211.812 159.581 C 211.954 159.350,212.370 159.205,212.735 159.258 C 214.204 159.469,217.648 156.180,216.740 155.432 C 215.054 154.041,204.155 153.374,202.822 154.580 C 202.293 155.058,201.730 155.085,199.591 154.730 C 195.842 154.109,188.455 155.554,185.607 157.465 C 183.704 158.743,181.093 158.607,178.200 157.079 C 175.638 155.727,160.869 155.393,160.080 156.670 C 158.603 159.060,153.690 158.928,152.432 156.464 C 151.936 155.490,151.258 154.801,150.647 154.648 C 150.105 154.512,149.108 153.934,148.431 153.365 L 147.200 152.329 147.200 153.315 C 147.200 153.858,147.481 154.535,147.824 154.820 C 148.167 155.105,148.763 155.982,149.148 156.769 C 149.533 157.556,150.091 158.582,150.388 159.048 C 151.286 160.459,149.592 162.510,147.807 162.175 C 147.026 162.028,146.098 162.135,145.542 162.436 C 142.876 163.875,138.914 162.836,140.807 161.194 C 141.311 160.757,141.565 160.400,141.372 160.400 C 141.180 160.400,141.433 160.112,141.934 159.761 C 142.573 159.314,142.810 158.803,142.723 158.061 C 142.611 157.098,142.713 157.011,143.819 157.115 C 145.963 157.317,146.744 154.942,145.180 152.974 C 144.531 152.158,144.000 151.102,144.000 150.627 C 144.000 149.237,140.474 145.747,138.554 145.236 C 137.648 144.995,136.229 144.259,135.399 143.599 C 134.569 142.940,133.573 142.400,133.186 142.400 C 132.799 142.400,131.101 141.050,129.413 139.400 C 126.959 137.001,126.101 136.400,125.131 136.400 C 124.464 136.400,123.081 135.968,122.059 135.441 C 120.307 134.538,118.635 133.961,114.400 132.800 C 113.410 132.529,112.149 132.144,111.598 131.946 C 109.641 131.239,95.380 131.318,94.542 132.040 C 94.078 132.440,93.037 132.684,91.760 132.692 C 89.920 132.704,84.660 133.421,83.233 133.854 C 82.801 133.985,82.777 134.137,83.133 134.493 C 85.401 136.761,78.391 139.327,75.589 137.255 C 73.968 136.057,73.073 136.184,71.641 137.814 C 69.166 140.633,71.344 142.370,77.877 142.787 C 83.607 143.153,83.584 143.126,85.001 151.200 C 85.367 153.290,85.922 156.092,86.234 157.426 C 86.545 158.760,86.800 160.075,86.800 160.350 C 86.800 160.624,87.510 162.322,88.377 164.124 C 91.045 169.665,92.000 172.051,92.000 173.179 C 92.000 173.815,92.411 174.647,93.000 175.200 C 94.301 176.422,94.262 176.994,92.838 177.584 C 91.308 178.218,90.887 179.600,92.223 179.600 C 93.250 179.600,94.298 180.969,93.601 181.399 C 93.380 181.536,93.200 182.270,93.200 183.031 C 93.200 184.534,92.947 184.471,96.238 183.783 C 97.417 183.536,98.400 184.171,98.400 185.179 C 98.400 185.554,98.844 186.278,99.388 186.789 L 100.376 187.716 100.739 186.758 C 100.940 186.231,101.172 185.440,101.255 185.000 C 101.527 183.564,103.484 183.728,105.151 185.328 C 107.425 187.511,111.000 188.044,111.000 186.200 C 111.000 185.625,111.309 185.364,112.100 185.273 C 113.311 185.134,113.530 185.628,112.600 186.400 C 111.693 187.152,111.863 187.547,113.407 188.284 C 115.324 189.198,115.129 189.632,112.300 190.749 C 111.515 191.059,111.200 191.465,111.200 192.169 C 111.200 194.185,108.002 195.149,106.569 193.565 C 105.386 192.259,102.346 190.335,101.797 190.546 C 100.536 191.030,100.835 195.600,102.128 195.600 C 102.429 195.600,102.996 195.954,103.387 196.386 C 103.865 196.914,104.870 197.259,106.455 197.438 C 109.117 197.739,109.108 198.179,106.411 199.395 C 105.535 199.790,104.712 200.448,104.582 200.857 C 104.452 201.266,103.998 201.787,103.573 202.014 C 102.426 202.628,102.616 203.441,104.500 205.991 C 105.435 207.257,106.387 208.612,106.615 209.001 C 106.995 209.649,107.148 209.600,108.415 208.422 C 110.615 206.375,112.874 205.773,113.382 207.098 C 113.567 207.580,113.316 208.062,112.569 208.657 L 111.488 209.519 112.404 210.805 C 113.275 212.029,113.288 212.144,112.664 213.200 C 112.149 214.071,112.115 214.396,112.504 214.713 C 113.393 215.436,116.072 216.400,117.195 216.400 C 118.503 216.400,122.321 219.346,122.635 220.599 C 123.110 222.488,122.750 227.410,122.089 228.071 C 121.311 228.849,121.518 229.564,122.600 229.836 C 123.687 230.109,123.830 230.410,123.179 231.061 C 122.884 231.356,122.997 231.890,123.556 232.841 C 124.351 234.194,125.654 239.446,126.424 244.400 C 126.646 245.830,127.015 248.170,127.243 249.600 C 127.762 252.848,127.733 259.849,127.185 263.689 C 126.956 265.290,126.692 269.241,126.597 272.468 C 126.349 280.950,125.617 293.890,125.347 294.595 C 125.201 294.974,125.345 295.200,125.734 295.200 C 126.544 295.200,126.963 295.908,126.514 296.518 C 125.519 297.868,125.492 306.640,126.481 307.363 C 127.115 307.826,127.105 307.917,126.341 308.682 C 125.424 309.598,125.228 318.140,125.999 323.594 C 126.448 326.766,126.460 326.754,124.141 325.349 C 119.669 322.638,116.004 320.149,113.851 318.361 C 113.163 317.789,111.610 316.634,110.400 315.794 C 105.089 312.107,91.824 299.344,87.540 293.800 C 86.690 292.700,84.988 290.540,83.758 289.000 C 80.366 284.755,75.854 277.930,71.857 271.000 C 69.424 266.781,65.032 257.330,62.749 251.400 C 61.009 246.881,57.511 234.492,56.650 229.800 C 56.529 229.140,56.163 227.340,55.837 225.800 C 55.511 224.260,55.144 222.100,55.021 221.000 C 54.898 219.900,54.702 218.550,54.585 218.000 C 53.090 210.928,53.511 189.156,55.379 177.000 C 57.685 161.989,64.803 140.791,70.755 131.213 C 71.374 130.216,72.287 128.590,72.783 127.600 C 73.279 126.610,74.206 125.026,74.843 124.080 C 75.479 123.134,76.000 122.266,76.000 122.152 C 76.000 122.037,76.765 120.831,77.700 119.472 C 78.635 118.112,79.580 116.707,79.800 116.348 C 83.817 109.802,96.705 95.462,104.065 89.349 C 109.451 84.877,111.194 83.480,113.200 82.031 C 116.390 79.726,123.149 75.200,123.401 75.200 C 123.519 75.200,124.377 74.713,125.308 74.117 C 128.878 71.833,141.140 65.600,142.063 65.600 C 142.263 65.600,143.276 65.174,144.313 64.654 C 147.550 63.031,153.708 60.885,161.800 58.561 C 163.688 58.018,175.772 55.514,178.800 55.037 C 182.173 54.506,187.733 53.952,191.800 53.743 C 194.220 53.618,196.230 53.490,196.266 53.458 C 196.560 53.200,208.518 53.716,213.353 54.196 M177.365 240.148 C 177.065 240.930,177.474 241.600,178.251 241.600 C 178.644 241.600,178.811 241.296,178.728 240.731 C 178.573 239.677,177.690 239.299,177.365 240.148 M205.680 272.880 C 205.004 273.556,205.084 274.270,205.868 274.571 C 206.731 274.902,207.255 274.049,206.758 273.122 C 206.300 272.266,206.295 272.265,205.680 272.880 M175.371 281.827 C 175.578 282.652,175.300 283.247,173.964 284.843 C 173.048 285.937,172.383 286.916,172.486 287.019 C 172.653 287.187,173.300 286.771,176.268 284.588 C 177.071 283.998,177.263 284.012,178.843 284.775 C 179.782 285.229,180.778 285.600,181.056 285.600 C 182.051 285.600,183.589 286.535,183.827 287.284 C 184.148 288.295,185.740 288.081,185.939 287.000 C 186.158 285.810,186.789 285.200,187.800 285.200 C 188.925 285.200,189.400 284.546,189.400 283.000 L 189.400 281.800 185.400 281.760 C 183.200 281.737,180.140 281.516,178.600 281.268 C 174.925 280.675,175.075 280.649,175.371 281.827 M220.978 282.435 C 220.831 282.674,220.894 283.054,221.120 283.280 C 221.625 283.785,222.400 283.358,222.400 282.576 C 222.400 281.903,221.371 281.800,220.978 282.435 " stroke="none" fill="#000000" fill-rule="evenodd"></path><path id="path1" d="M200.400 254.171 C 200.400 254.542,200.742 254.800,201.233 254.800 C 202.208 254.800,202.070 253.865,201.067 253.671 C 200.672 253.594,200.400 253.798,200.400 254.171 M203.400 259.200 C 202.696 259.502,202.735 259.547,203.724 259.572 C 204.376 259.588,204.744 259.432,204.600 259.200 C 204.464 258.980,204.318 258.813,204.276 258.828 C 204.234 258.844,203.840 259.011,203.400 259.200 M198.826 260.569 C 198.551 260.900,198.514 261.223,198.735 261.360 C 198.941 261.487,199.318 261.339,199.574 261.031 C 199.849 260.700,199.886 260.377,199.665 260.240 C 199.459 260.113,199.082 260.261,198.826 260.569 M206.840 299.057 C 205.970 299.666,205.954 299.742,206.616 300.113 C 207.158 300.416,207.457 300.336,207.864 299.779 C 208.914 298.344,208.388 297.973,206.840 299.057 M206.877 304.030 C 206.956 304.267,207.191 304.460,207.400 304.460 C 207.609 304.460,207.845 304.267,207.923 304.030 C 208.002 303.793,207.767 303.600,207.400 303.600 C 207.033 303.600,206.798 303.793,206.877 304.030 " stroke="none" fill="#282828" fill-rule="evenodd"></path><path id="path2" d="M77.036 133.942 C 76.919 134.130,77.266 134.200,77.805 134.097 C 79.484 133.776,80.379 134.321,79.400 135.067 C 78.637 135.649,78.656 135.667,79.800 135.440 C 81.598 135.083,82.375 135.722,81.422 136.776 C 80.496 137.799,81.348 137.932,82.711 136.977 C 83.915 136.134,83.845 135.879,82.078 134.654 C 80.560 133.602,77.512 133.172,77.036 133.942 M76.173 136.138 C 76.331 137.573,76.747 138.004,77.924 137.954 C 78.631 137.923,78.754 137.843,78.283 137.721 C 77.883 137.617,77.464 137.020,77.333 136.367 C 77.054 134.971,76.023 134.767,76.173 136.138 M148.084 159.815 C 147.801 160.137,147.672 160.400,147.798 160.400 C 147.925 160.400,147.835 160.760,147.600 161.200 C 147.057 162.215,147.709 162.229,149.400 161.238 C 151.045 160.275,151.220 159.195,149.729 159.215 C 149.108 159.224,148.368 159.494,148.084 159.815 M216.451 159.560 C 215.985 159.855,215.800 161.337,215.964 163.461 C 216.015 164.118,218.165 164.794,218.842 164.365 C 219.243 164.112,219.087 164.011,218.290 164.006 C 216.531 163.996,215.563 160.544,217.200 160.116 C 218.075 159.887,218.303 159.196,217.500 159.206 C 217.225 159.209,216.753 159.369,216.451 159.560 M170.141 160.855 C 170.658 161.156,171.141 161.160,171.741 160.870 C 172.490 160.507,172.396 160.452,171.000 160.439 C 169.669 160.427,169.525 160.497,170.141 160.855 M187.700 164.690 C 186.566 165.872,186.574 166.000,187.786 166.000 C 188.951 166.000,189.860 164.690,189.092 164.118 C 188.762 163.873,188.304 164.061,187.700 164.690 M182.400 166.374 C 182.400 166.909,184.210 167.358,185.056 167.034 C 185.916 166.704,185.712 166.563,183.900 166.235 C 182.965 166.066,182.400 166.118,182.400 166.374 M224.117 167.480 C 223.506 167.599,222.906 168.352,222.170 169.926 C 221.585 171.177,220.830 172.515,220.491 172.900 C 219.927 173.542,219.952 173.600,220.785 173.600 C 221.532 173.600,221.650 173.760,221.452 174.500 C 221.319 174.995,221.208 175.558,221.205 175.750 C 221.202 175.942,220.694 175.999,220.076 175.875 C 219.082 175.676,218.907 175.797,218.576 176.913 C 218.321 177.769,217.878 178.253,217.200 178.416 C 216.438 178.600,216.226 178.882,216.308 179.600 C 216.367 180.119,216.206 180.673,215.950 180.831 C 215.418 181.160,215.764 182.400,216.387 182.400 C 216.614 182.400,216.776 182.265,216.746 182.100 C 216.532 180.900,217.383 179.163,218.154 179.223 C 219.885 179.357,220.095 179.233,219.842 178.225 C 219.569 177.137,220.300 176.392,220.818 177.230 C 220.999 177.523,221.047 178.266,220.924 178.881 C 220.652 180.239,221.437 180.384,222.852 179.238 C 223.747 178.514,223.759 178.439,223.106 177.717 C 222.559 177.113,222.470 176.527,222.670 174.840 C 222.850 173.321,222.775 172.632,222.407 172.404 C 222.062 172.191,222.312 171.995,223.172 171.806 C 223.949 171.636,224.618 171.160,224.875 170.596 C 225.224 169.829,225.521 169.702,226.568 169.872 C 228.145 170.128,229.201 169.165,228.400 168.200 C 227.800 167.478,226.737 167.423,226.080 168.080 C 225.707 168.453,225.600 168.409,225.600 167.880 C 225.600 167.506,225.465 167.225,225.300 167.254 C 225.135 167.284,224.603 167.386,224.117 167.480 M198.092 170.002 C 197.791 170.483,197.761 170.852,198.008 171.005 C 198.731 171.452,198.409 171.927,197.500 171.754 C 196.670 171.597,196.662 171.612,197.400 171.944 C 198.842 172.594,200.275 170.658,199.084 169.669 C 198.700 169.351,198.444 169.437,198.092 170.002 M155.165 170.113 C 154.495 170.627,154.595 171.452,155.429 172.286 C 156.423 173.280,157.983 171.486,157.035 170.438 C 156.162 169.474,156.028 169.451,155.165 170.113 M167.500 169.876 C 167.115 169.976,166.800 170.307,166.800 170.609 C 166.800 170.912,166.485 171.344,166.100 171.568 C 165.715 171.792,165.603 171.981,165.851 171.988 C 166.099 171.995,166.511 171.748,166.767 171.440 C 167.255 170.851,170.000 170.648,170.000 171.201 C 170.000 171.377,170.540 171.710,171.200 171.940 C 171.860 172.170,172.400 172.205,172.400 172.017 C 172.400 171.077,174.003 172.187,174.032 173.147 C 174.049 173.726,174.154 173.975,174.265 173.700 C 174.481 173.165,175.535 173.047,176.565 173.442 C 177.437 173.777,176.952 174.400,175.819 174.400 C 174.384 174.400,173.793 176.998,175.000 178.000 C 175.581 178.482,175.856 177.899,175.634 176.659 C 175.548 176.184,177.536 174.395,178.121 174.421 C 178.384 174.433,178.195 174.724,177.700 175.070 C 176.400 175.977,176.589 176.399,178.300 176.407 C 179.532 176.413,179.961 176.644,180.700 177.701 C 181.538 178.901,181.600 178.925,181.600 178.060 C 181.600 177.502,181.042 176.638,180.200 175.892 C 179.430 175.211,178.800 174.317,178.800 173.906 C 178.800 172.054,175.998 170.338,173.400 170.598 C 171.584 170.781,170.805 170.691,170.200 170.232 C 169.394 169.621,168.784 169.540,167.500 169.876 M202.100 169.865 C 201.069 170.281,201.542 171.301,202.638 171.026 C 203.230 170.878,203.918 170.966,204.238 171.232 C 204.680 171.599,204.800 171.563,204.800 171.063 C 204.800 170.067,203.276 169.390,202.100 169.865 M161.421 171.166 C 161.100 171.686,161.891 173.600,162.426 173.600 C 163.239 173.600,164.372 171.850,163.916 171.300 C 163.435 170.720,161.753 170.629,161.421 171.166 M195.208 173.791 C 194.896 174.166,194.805 174.900,194.964 175.747 C 195.279 177.427,193.617 178.096,192.467 176.753 C 191.100 175.157,188.835 177.696,188.806 180.857 C 188.803 181.219,188.530 181.618,188.200 181.745 C 187.870 181.871,187.600 181.786,187.600 181.554 C 187.600 181.323,187.375 181.216,187.100 181.317 C 186.825 181.417,186.645 181.702,186.700 181.950 C 186.755 182.197,186.620 182.400,186.400 182.400 C 186.180 182.400,186.000 182.245,186.000 182.055 C 186.000 181.865,185.595 181.752,185.100 181.804 C 184.605 181.855,183.987 181.921,183.727 181.949 C 183.467 181.977,183.143 182.351,183.006 182.780 C 182.870 183.208,182.408 183.670,181.980 183.806 C 181.360 184.003,181.282 184.207,181.600 184.801 C 181.820 185.211,182.000 185.932,182.000 186.403 C 182.000 187.007,182.206 187.216,182.700 187.113 C 183.151 187.019,183.366 186.653,183.305 186.084 C 183.226 185.352,183.410 185.200,184.381 185.200 C 185.026 185.200,185.659 185.028,185.789 184.817 C 186.208 184.140,187.200 184.855,187.200 185.835 C 187.200 186.514,186.915 186.856,186.200 187.036 C 185.088 187.315,184.969 187.609,185.680 188.320 C 186.324 188.964,187.226 188.932,186.973 188.275 C 186.862 187.986,187.119 187.436,187.543 187.052 C 188.379 186.295,188.290 184.917,187.355 184.160 C 186.919 183.807,187.080 183.575,188.163 182.992 C 189.324 182.367,189.550 181.997,189.766 180.374 C 190.153 177.455,193.147 176.448,193.528 179.108 C 193.682 180.183,193.966 180.210,195.565 179.300 C 196.875 178.555,197.191 177.436,196.200 177.055 C 195.427 176.759,195.432 175.649,196.210 174.789 C 196.729 174.215,196.737 174.046,196.263 173.652 C 195.834 173.297,195.591 173.328,195.208 173.791 M154.000 174.229 C 154.000 174.500,155.063 175.600,155.325 175.600 C 155.425 175.600,155.601 175.240,155.716 174.800 C 155.882 174.164,155.728 174.000,154.963 174.000 C 154.433 174.000,154.000 174.103,154.000 174.229 M208.000 175.373 C 208.000 175.692,208.196 176.074,208.435 176.222 C 208.674 176.369,208.778 176.840,208.666 177.268 C 208.500 177.903,208.567 177.959,209.031 177.574 C 209.839 176.903,209.735 175.877,208.800 175.293 C 208.138 174.880,208.000 174.893,208.000 175.373 M154.000 177.849 C 154.000 178.380,154.109 178.408,154.600 178.000 C 154.930 177.726,155.200 177.434,155.200 177.351 C 155.200 177.268,154.930 177.200,154.600 177.200 C 154.270 177.200,154.000 177.492,154.000 177.849 M157.900 178.129 C 156.912 178.939,156.863 179.091,157.415 179.644 C 158.280 180.509,157.773 181.462,156.274 181.786 L 155.000 182.062 155.984 182.449 C 157.185 182.922,158.377 181.659,158.391 179.900 C 158.396 179.295,158.760 178.440,159.200 178.000 C 160.301 176.899,159.278 177.001,157.900 178.129 M195.600 178.200 C 195.600 178.530,195.336 178.800,195.013 178.800 C 194.655 178.800,194.515 178.565,194.655 178.200 C 194.782 177.870,195.046 177.600,195.243 177.600 C 195.439 177.600,195.600 177.870,195.600 178.200 M181.466 180.973 C 181.320 181.352,181.495 181.528,181.979 181.492 C 182.402 181.460,182.628 181.218,182.513 180.918 C 182.250 180.233,181.739 180.260,181.466 180.973 M217.736 184.809 C 217.881 185.134,218.113 185.722,218.251 186.116 C 218.389 186.510,218.704 186.765,218.951 186.683 C 219.706 186.431,219.453 185.532,218.436 184.858 C 217.631 184.323,217.516 184.315,217.736 184.809 M112.243 185.833 C 111.867 186.811,111.949 186.941,112.600 186.400 C 113.265 185.848,113.396 185.200,112.843 185.200 C 112.646 185.200,112.376 185.485,112.243 185.833 M100.210 187.584 C 99.944 188.015,100.263 190.796,100.620 191.153 C 101.462 191.996,101.943 190.056,101.235 188.668 C 100.813 187.842,100.352 187.354,100.210 187.584 M253.600 187.624 C 253.600 187.857,253.420 187.936,253.200 187.800 C 252.980 187.664,252.800 187.734,252.800 187.957 C 252.800 188.179,253.044 188.504,253.342 188.680 C 253.639 188.856,254.109 189.429,254.385 189.954 C 254.660 190.479,255.002 190.749,255.143 190.554 C 255.284 190.359,255.925 190.162,256.567 190.116 C 257.209 190.069,257.839 189.871,257.967 189.676 C 258.095 189.480,258.470 189.217,258.800 189.092 C 259.210 188.936,259.124 188.853,258.529 188.832 C 258.049 188.814,257.374 189.083,257.029 189.429 C 256.457 190.000,256.400 189.996,256.400 189.380 C 256.400 188.832,256.289 188.795,255.818 189.185 C 255.181 189.714,254.396 189.431,254.406 188.676 C 254.410 188.386,254.557 188.430,254.785 188.789 C 255.105 189.296,255.193 189.284,255.414 188.708 C 255.555 188.340,255.554 187.850,255.412 187.619 C 255.073 187.072,253.600 187.075,253.600 187.624 M113.258 189.432 C 112.917 190.181,112.933 190.400,113.329 190.400 C 113.875 190.400,114.800 189.622,114.800 189.163 C 114.800 188.375,113.648 188.576,113.258 189.432 M253.180 190.224 C 252.802 190.680,252.764 191.054,253.052 191.510 C 253.749 192.616,254.276 192.478,254.201 191.210 C 254.109 189.666,253.850 189.416,253.180 190.224 M223.600 193.176 C 223.600 193.383,223.792 193.671,224.026 193.816 C 224.809 194.300,223.209 195.633,222.379 195.189 C 221.929 194.948,221.312 194.943,220.730 195.177 C 220.109 195.425,220.019 195.558,220.457 195.575 C 220.819 195.589,221.218 195.870,221.345 196.200 C 221.599 196.863,223.200 197.036,223.200 196.400 C 223.200 196.180,223.560 196.000,224.000 196.000 C 224.834 196.000,224.990 195.348,224.548 193.700 C 224.312 192.821,223.600 192.428,223.600 193.176 M258.228 194.755 C 258.108 194.950,258.337 195.195,258.738 195.300 C 259.180 195.415,259.467 195.276,259.467 194.945 C 259.467 194.339,258.570 194.201,258.228 194.755 M219.399 196.398 C 219.534 196.617,220.040 197.003,220.522 197.256 C 221.394 197.713,221.395 197.710,220.638 196.858 C 219.875 195.998,218.936 195.650,219.399 196.398 M223.415 196.787 C 222.977 197.534,223.488 199.013,224.220 199.117 C 224.912 199.216,225.040 199.017,225.040 197.848 C 225.040 196.591,223.948 195.878,223.415 196.787 M110.328 207.687 C 110.230 208.367,109.928 208.577,109.035 208.587 C 108.395 208.594,107.799 208.811,107.712 209.069 C 107.616 209.353,107.841 209.462,108.285 209.346 C 109.184 209.111,111.746 210.777,111.927 211.714 C 112.024 212.222,111.785 212.400,111.006 212.400 C 110.406 212.400,110.059 212.572,110.200 212.800 C 110.550 213.366,111.716 213.296,112.591 212.656 C 113.309 212.131,113.302 212.067,112.400 210.800 L 111.466 209.488 112.533 208.711 C 113.858 207.745,113.913 207.106,112.644 207.425 C 112.118 207.557,111.567 207.470,111.420 207.232 C 110.982 206.524,110.464 206.739,110.328 207.687 M174.477 210.385 C 173.053 211.582,173.601 212.456,175.229 211.584 C 175.760 211.301,176.000 211.301,176.000 211.586 C 176.000 211.814,176.270 212.000,176.600 212.000 C 177.421 212.000,177.357 210.664,176.500 209.898 C 175.858 209.325,175.690 209.366,174.477 210.385 M181.703 210.487 C 180.084 211.309,180.052 211.361,180.836 211.910 C 181.553 212.412,181.743 212.394,182.447 211.758 C 183.111 211.156,183.377 211.118,184.039 211.531 C 184.475 211.804,185.005 211.920,185.216 211.790 C 185.427 211.660,185.600 211.813,185.600 212.132 C 185.600 213.203,187.084 214.658,187.629 214.122 C 188.461 213.305,187.343 211.200,186.077 211.200 C 185.513 211.200,184.676 210.847,184.218 210.417 C 183.389 209.638,183.373 209.639,181.703 210.487 M209.600 213.376 C 209.600 214.338,210.627 215.507,211.076 215.057 C 211.218 214.916,211.123 214.800,210.867 214.800 C 210.226 214.800,210.276 213.733,210.929 213.483 C 211.219 213.371,211.671 213.622,211.932 214.040 C 212.504 214.956,213.055 215.002,213.857 214.200 C 214.187 213.870,214.804 213.600,215.229 213.600 C 215.653 213.600,216.000 213.330,216.000 213.000 C 216.000 212.248,215.697 212.250,214.231 213.015 C 213.588 213.350,212.958 213.467,212.831 213.274 C 212.216 212.341,209.600 212.424,209.600 213.376 M199.000 213.200 C 198.864 213.420,198.943 213.600,199.176 213.600 C 199.409 213.600,199.597 213.825,199.594 214.100 C 199.574 215.706,196.677 216.704,196.294 215.237 C 196.139 214.645,195.874 214.474,195.397 214.657 C 195.004 214.807,194.575 214.683,194.376 214.361 C 194.166 214.021,193.538 213.857,192.762 213.938 C 192.050 214.013,191.357 213.855,191.186 213.578 C 191.014 213.300,190.577 213.200,190.186 213.350 C 188.943 213.827,190.678 215.302,192.264 215.117 C 192.968 215.034,193.456 215.110,193.348 215.284 C 193.241 215.458,193.413 215.600,193.730 215.600 C 194.048 215.600,194.599 216.044,194.954 216.586 C 195.737 217.780,195.756 218.000,195.076 218.000 C 194.789 218.000,194.204 218.280,193.776 218.622 C 193.026 219.223,193.029 219.230,193.871 218.824 C 194.790 218.380,196.138 218.653,195.792 219.213 C 195.420 219.814,197.236 220.089,197.929 219.536 C 199.020 218.664,200.346 218.000,200.995 218.000 C 201.716 218.000,201.741 217.810,201.163 216.731 C 200.865 216.173,200.856 215.784,201.136 215.504 C 201.416 215.224,201.277 214.730,200.698 213.947 C 199.797 212.729,199.399 212.554,199.000 213.200 M197.732 217.833 C 197.456 218.551,196.400 218.578,196.400 217.867 C 196.400 217.123,196.783 216.819,197.414 217.061 C 197.708 217.174,197.852 217.521,197.732 217.833 M200.542 217.107 C 200.646 217.275,200.297 217.618,199.766 217.869 C 198.923 218.267,198.800 218.228,198.800 217.562 C 198.800 216.805,200.139 216.455,200.542 217.107 M209.848 217.410 C 209.491 217.766,209.200 218.264,209.200 218.517 C 209.200 218.771,209.595 218.583,210.078 218.100 C 210.561 217.617,210.852 217.119,210.725 216.992 C 210.599 216.865,210.204 217.053,209.848 217.410 M121.300 219.357 C 121.685 219.649,122.000 220.173,122.000 220.520 C 122.000 220.868,122.180 221.264,122.400 221.400 C 122.620 221.536,122.800 221.407,122.800 221.113 C 122.800 220.346,121.641 218.798,121.077 218.813 C 120.813 218.820,120.912 219.062,121.300 219.357 M196.255 222.057 C 195.845 222.295,194.871 222.386,194.090 222.260 C 192.559 222.011,192.712 222.465,194.466 223.379 C 194.980 223.647,195.355 224.076,195.300 224.333 C 195.105 225.242,195.812 224.772,196.700 223.401 C 197.943 221.481,197.831 221.141,196.255 222.057 M183.892 222.437 C 183.502 222.664,183.276 222.999,183.389 223.183 C 183.503 223.366,183.331 223.618,183.008 223.741 C 182.685 223.865,182.242 223.659,182.023 223.283 C 181.701 222.731,181.622 222.716,181.612 223.204 C 181.595 224.068,183.497 226.000,184.366 226.000 C 184.770 226.000,185.708 226.102,186.450 226.227 C 187.525 226.407,187.661 226.364,187.117 226.016 C 186.195 225.426,186.656 224.400,187.843 224.400 C 188.759 224.400,188.770 224.368,188.100 223.667 C 187.715 223.263,187.331 222.987,187.247 223.053 C 187.164 223.118,186.719 222.908,186.258 222.586 C 185.281 221.901,184.857 221.875,183.892 222.437 M200.821 223.161 C 200.121 224.469,200.256 226.201,201.000 225.457 C 201.330 225.127,201.600 224.651,201.600 224.400 C 201.600 224.136,201.873 224.216,202.248 224.590 C 203.080 225.423,203.201 225.269,202.869 223.797 C 202.552 222.385,201.424 222.035,200.821 223.161 M186.310 223.271 C 186.027 224.119,184.868 224.628,184.366 224.126 C 184.115 223.875,184.031 223.474,184.178 223.235 C 184.547 222.638,186.509 222.672,186.310 223.271 M207.200 224.981 C 206.650 225.289,205.885 225.639,205.500 225.758 C 204.529 226.059,204.621 226.800,205.629 226.800 C 206.384 226.800,206.401 226.856,205.825 227.432 C 205.202 228.055,205.302 228.800,206.010 228.800 C 206.450 228.800,207.152 227.549,207.317 226.469 C 207.383 226.034,207.676 225.390,207.968 225.039 C 208.610 224.265,208.495 224.256,207.200 224.981 M195.632 225.500 C 195.614 225.775,195.330 226.000,195.000 226.000 C 194.670 226.000,194.373 226.225,194.339 226.500 C 194.306 226.775,194.258 227.201,194.233 227.446 C 194.208 227.691,193.944 228.186,193.645 228.546 C 193.183 229.102,193.192 229.200,193.702 229.200 C 194.527 229.200,195.338 228.137,195.062 227.418 C 194.937 227.092,195.002 226.722,195.206 226.596 C 195.585 226.362,196.240 228.226,196.074 229.064 C 195.962 229.626,201.617 231.033,202.551 230.674 C 203.265 230.400,203.434 228.992,202.800 228.600 C 202.440 228.378,202.227 228.903,202.353 229.700 C 202.418 230.113,201.595 230.076,199.186 229.560 C 197.296 229.154,197.153 229.043,197.374 228.160 C 197.545 227.481,197.447 227.200,197.041 227.200 C 196.725 227.200,196.286 226.705,196.065 226.100 C 195.844 225.495,195.649 225.225,195.632 225.500 M192.000 227.353 C 192.000 227.683,192.180 228.064,192.400 228.200 C 192.620 228.336,192.800 228.177,192.800 227.847 C 192.800 227.517,192.620 227.136,192.400 227.000 C 192.180 226.864,192.000 227.023,192.000 227.353 M194.240 230.334 C 194.103 230.557,194.318 230.642,194.739 230.532 C 195.751 230.267,198.400 231.426,198.400 232.133 C 198.400 232.561,198.937 232.705,200.500 232.698 C 201.655 232.693,202.385 232.612,202.122 232.518 C 201.860 232.425,201.744 232.090,201.865 231.774 C 202.116 231.120,200.992 230.965,200.600 231.600 C 200.226 232.206,199.200 232.079,199.200 231.427 C 199.200 230.804,198.677 230.594,196.141 230.201 C 195.195 230.054,194.378 230.112,194.240 230.334 M185.867 234.667 C 185.381 235.153,185.590 235.579,186.200 235.345 C 186.530 235.218,186.800 234.954,186.800 234.757 C 186.800 234.338,186.249 234.284,185.867 234.667 M204.790 236.226 C 204.167 237.864,204.639 239.632,205.379 238.434 C 205.508 238.226,205.431 237.943,205.208 237.805 C 204.948 237.644,205.021 237.133,205.412 236.377 C 205.775 235.674,205.851 235.200,205.600 235.200 C 205.369 235.200,205.005 235.662,204.790 236.226 M171.302 237.709 C 170.667 238.410,170.742 238.428,173.225 238.174 C 175.170 237.975,176.188 238.068,177.347 238.552 C 178.193 238.905,179.033 239.103,179.215 238.991 C 179.922 238.554,180.038 239.685,179.340 240.214 C 178.471 240.872,178.912 240.982,180.027 240.385 C 182.036 239.310,189.242 240.354,188.898 241.670 C 188.746 242.250,188.942 242.401,189.853 242.406 C 192.266 242.419,192.584 244.044,190.271 244.538 C 189.792 244.640,190.018 244.696,190.774 244.662 C 192.771 244.572,193.297 242.703,191.531 241.971 C 189.447 241.108,190.921 240.267,193.807 240.673 C 196.122 240.999,198.364 243.081,197.184 243.810 C 196.575 244.186,196.737 244.800,197.445 244.800 C 197.936 244.800,198.048 245.090,197.913 246.013 C 197.815 246.679,197.862 247.084,198.017 246.913 C 198.461 246.421,198.764 243.200,198.367 243.200 C 198.171 243.200,197.563 242.492,197.017 241.626 C 195.874 239.816,193.700 239.203,191.033 239.940 C 188.831 240.548,186.998 238.733,188.900 237.829 C 189.175 237.698,188.950 237.706,188.400 237.847 C 187.334 238.121,186.357 238.167,183.800 238.064 C 182.920 238.029,181.570 238.054,180.800 238.121 C 180.030 238.187,178.860 238.074,178.200 237.869 C 175.446 237.014,172.003 236.934,171.302 237.709 M166.000 239.400 C 166.000 239.733,166.356 240.000,166.800 240.000 C 167.754 240.000,167.861 239.386,166.967 239.043 C 166.073 238.700,166.000 238.727,166.000 239.400 M252.414 240.374 C 251.777 241.565,251.920 241.797,252.800 241.000 C 253.657 240.224,253.842 239.600,253.214 239.600 C 253.002 239.600,252.642 239.948,252.414 240.374 M175.375 241.560 C 175.527 241.805,175.371 242.113,175.030 242.244 C 174.519 242.440,174.602 242.686,175.503 243.641 C 176.696 244.904,177.600 245.145,177.600 244.200 C 177.600 243.870,177.792 243.600,178.027 243.600 C 178.355 243.600,178.215 242.133,177.850 241.747 C 177.510 241.386,175.158 241.208,175.375 241.560 M256.241 242.067 C 256.355 242.250,256.167 242.400,255.824 242.400 C 255.481 242.400,255.200 242.574,255.200 242.787 C 255.200 243.001,255.491 243.063,255.847 242.927 C 256.397 242.715,256.425 242.806,256.032 243.539 C 255.731 244.103,255.715 244.400,255.986 244.400 C 256.214 244.400,256.400 244.155,256.400 243.855 C 256.400 243.502,256.725 243.373,257.324 243.488 C 257.857 243.589,258.466 243.403,258.761 243.046 C 259.208 242.509,259.117 242.449,258.062 242.582 C 257.211 242.690,256.907 242.586,257.042 242.234 C 257.148 241.959,256.965 241.733,256.635 241.733 C 256.305 241.733,256.128 241.883,256.241 242.067 M240.636 245.100 C 240.476 245.595,240.199 246.000,240.020 246.000 C 239.318 246.000,239.299 248.025,239.998 248.399 C 241.070 248.973,243.401 246.019,242.376 245.385 C 242.162 245.253,242.114 244.932,242.270 244.672 C 242.453 244.367,242.328 244.383,241.916 244.717 C 241.394 245.139,241.246 245.139,241.102 244.717 C 240.996 244.407,240.809 244.561,240.636 245.100 M242.070 246.090 C 241.850 246.310,241.455 246.357,241.192 246.195 C 240.829 245.971,240.840 245.822,241.238 245.576 C 241.921 245.155,242.591 245.569,242.070 246.090 M216.562 252.468 C 215.866 253.260,215.862 253.313,216.510 253.076 C 216.987 252.903,217.504 253.144,218.082 253.809 C 219.351 255.267,219.607 255.018,218.708 253.200 C 217.795 251.354,217.598 251.287,216.562 252.468 M162.000 256.376 C 162.000 256.583,162.213 256.884,162.473 257.045 C 162.808 257.252,162.754 257.406,162.288 257.569 C 161.806 257.738,161.735 257.961,162.023 258.400 C 162.524 259.164,164.090 257.501,163.737 256.580 C 163.493 255.945,162.000 255.769,162.000 256.376 M209.900 256.629 C 208.712 257.273,208.409 258.400,209.424 258.400 C 209.767 258.400,209.943 258.568,209.816 258.773 C 209.689 258.979,210.092 259.133,210.710 259.115 C 211.746 259.085,211.834 258.961,211.817 257.543 C 211.798 255.857,211.545 255.736,209.900 256.629 M215.443 258.464 C 214.746 258.869,214.790 258.948,215.989 259.452 C 218.124 260.350,218.765 260.160,217.513 259.000 C 216.277 257.853,216.427 257.892,215.443 258.464 M161.606 260.052 C 160.442 260.677,160.359 260.800,161.106 260.800 C 161.729 260.800,162.000 261.039,162.000 261.587 C 162.000 262.641,162.957 262.252,163.546 260.959 C 164.308 259.287,163.625 258.968,161.606 260.052 M259.700 260.488 C 258.582 261.027,258.554 261.468,259.617 261.805 C 260.169 261.980,260.361 262.292,260.211 262.766 C 260.053 263.265,260.194 263.452,260.701 263.415 C 261.968 263.321,262.498 262.800,261.970 262.164 C 261.630 261.754,261.625 261.600,261.954 261.600 C 262.275 261.600,262.261 261.367,261.907 260.800 C 261.349 259.907,261.006 259.858,259.700 260.488 M158.710 262.623 C 158.587 262.746,158.580 263.200,158.693 263.632 C 158.887 264.375,158.927 264.379,159.414 263.714 C 160.086 262.795,159.479 261.854,158.710 262.623 M172.163 263.400 C 171.803 263.950,171.293 264.400,171.030 264.400 C 169.586 264.400,168.966 265.512,169.915 266.402 L 170.830 267.259 170.556 266.167 L 170.282 265.075 172.330 265.317 C 173.477 265.453,174.481 265.393,174.612 265.180 C 174.742 264.971,174.661 264.800,174.434 264.800 C 174.187 264.800,174.117 264.314,174.260 263.600 C 174.573 262.036,173.146 261.900,172.163 263.400 M209.063 264.083 C 208.846 264.909,209.014 265.540,209.350 265.167 C 209.758 264.715,210.007 263.200,209.674 263.200 C 209.464 263.200,209.189 263.597,209.063 264.083 M188.012 264.423 C 188.485 265.307,189.479 265.854,189.881 265.452 C 190.226 265.107,188.796 263.600,188.124 263.600 C 187.691 263.600,187.667 263.777,188.012 264.423 M190.050 266.678 C 189.680 267.079,188.933 267.228,187.761 267.134 C 186.141 267.005,185.971 267.088,185.310 268.326 L 184.600 269.656 185.906 270.828 C 186.625 271.473,187.570 272.000,188.006 272.000 C 188.445 272.000,188.800 272.268,188.800 272.600 C 188.800 273.256,189.422 273.412,189.773 272.844 C 190.058 272.383,188.096 271.096,187.025 271.042 C 185.553 270.967,185.968 269.422,187.499 269.275 C 188.283 269.199,188.963 268.842,189.214 268.375 C 189.442 267.949,189.982 267.600,190.414 267.600 C 190.846 267.600,191.200 267.341,191.200 267.024 C 191.200 266.165,190.672 266.006,190.050 266.678 M178.047 268.362 C 177.612 268.638,177.715 268.857,178.528 269.390 C 179.528 270.045,179.599 270.033,180.677 269.034 L 181.792 268.000 180.196 268.006 C 179.318 268.009,178.351 268.170,178.047 268.362 M172.100 268.812 C 171.464 269.068,171.200 269.506,171.200 270.307 C 171.200 270.930,170.991 271.649,170.735 271.905 C 170.062 272.578,172.090 273.298,173.296 272.814 C 174.021 272.523,174.061 272.436,173.500 272.375 C 173.115 272.334,172.620 272.278,172.400 272.250 C 172.180 272.223,172.000 272.065,172.000 271.900 C 172.000 271.735,172.000 271.439,172.000 271.243 C 172.000 270.552,173.274 270.407,174.122 271.000 C 175.161 271.728,177.745 271.790,178.317 271.100 C 178.636 270.716,178.369 270.584,177.166 270.530 C 174.704 270.421,174.468 270.325,174.219 269.333 C 173.970 268.339,173.540 268.234,172.100 268.812 M258.290 269.122 C 259.137 269.768,259.092 270.491,258.183 270.840 C 257.951 270.929,258.111 271.337,258.547 271.763 C 259.314 272.514,259.323 272.514,259.124 271.751 C 258.904 270.911,259.353 270.330,260.589 269.858 C 261.232 269.613,261.273 269.492,260.808 269.205 C 260.495 269.011,260.095 268.942,259.919 269.050 C 259.744 269.158,259.375 269.107,259.100 268.935 C 258.072 268.292,257.404 268.446,258.290 269.122 M205.700 271.633 C 205.205 271.821,204.800 272.146,204.800 272.356 C 204.800 272.567,204.334 273.292,203.764 273.969 L 202.729 275.200 203.864 275.194 C 204.489 275.191,205.270 274.996,205.600 274.762 C 206.058 274.436,205.927 274.395,205.046 274.589 L 203.892 274.842 205.036 273.631 C 205.700 272.927,206.328 272.568,206.534 272.774 C 206.739 272.979,207.385 272.954,208.074 272.714 C 208.893 272.429,209.132 272.172,208.846 271.886 C 208.292 271.332,206.808 271.212,205.700 271.633 M255.544 272.007 C 256.064 272.443,256.733 272.800,257.032 272.800 C 257.330 272.800,257.482 273.043,257.367 273.341 C 257.192 273.798,258.714 275.200,259.386 275.200 C 259.954 275.200,259.494 274.478,258.632 274.017 C 258.099 273.732,257.739 273.297,257.831 273.049 C 257.923 272.802,257.234 272.288,256.299 271.907 L 254.600 271.214 255.544 272.007 M206.800 274.567 C 206.800 274.915,207.085 275.200,207.433 275.200 C 208.140 275.200,208.017 274.339,207.275 274.092 C 207.014 274.005,206.800 274.218,206.800 274.567 M165.606 278.224 C 165.594 279.039,166.610 279.958,167.800 280.210 L 169.000 280.464 167.600 279.547 C 166.830 279.043,166.068 278.444,165.906 278.215 C 165.704 277.930,165.610 277.933,165.606 278.224 M169.200 280.336 C 169.200 280.520,169.670 280.886,170.244 281.147 C 170.996 281.490,171.230 281.841,171.083 282.404 C 170.911 283.063,170.996 283.123,171.624 282.787 C 172.450 282.345,172.272 281.329,171.225 280.513 C 170.506 279.953,169.200 279.838,169.200 280.336 M191.173 281.250 C 190.668 282.195,191.340 284.000,192.198 284.000 C 193.309 284.000,194.487 282.128,193.934 281.242 C 193.254 280.153,191.758 280.158,191.173 281.250 M192.977 282.100 C 192.609 283.297,192.462 283.422,191.980 282.940 C 191.446 282.406,191.924 281.200,192.670 281.200 C 193.091 281.200,193.177 281.451,192.977 282.100 M173.400 284.400 C 172.843 285.015,172.807 285.200,173.242 285.200 C 173.553 285.200,174.032 284.840,174.307 284.400 C 174.582 283.960,174.653 283.600,174.465 283.600 C 174.278 283.600,173.798 283.960,173.400 284.400 M177.058 284.251 C 177.571 284.461,177.303 286.000,176.753 286.000 C 176.559 286.000,176.400 286.382,176.400 286.849 C 176.400 287.558,176.499 287.616,177.000 287.200 C 177.330 286.926,177.600 286.379,177.600 285.984 C 177.600 285.590,177.825 285.175,178.100 285.064 C 178.655 284.839,177.745 283.990,177.000 284.038 C 176.780 284.052,176.806 284.148,177.058 284.251 M175.200 285.400 C 174.792 285.891,174.820 286.000,175.351 286.000 C 175.708 286.000,176.000 285.730,176.000 285.400 C 176.000 285.070,175.932 284.800,175.849 284.800 C 175.766 284.800,175.474 285.070,175.200 285.400 M188.713 285.020 C 188.315 285.670,188.210 287.376,188.536 287.899 C 188.710 288.180,188.573 288.789,188.223 289.288 C 187.880 289.778,187.600 290.552,187.600 291.009 C 187.600 291.971,186.892 292.800,186.070 292.800 C 185.502 292.800,185.561 291.590,186.210 289.912 C 186.518 289.118,184.691 289.847,182.872 291.246 C 182.160 291.793,181.712 291.871,180.946 291.579 C 180.397 291.371,179.346 291.200,178.611 291.200 C 177.472 291.200,177.306 291.082,177.484 290.400 C 177.737 289.435,176.908 289.331,175.776 290.187 C 174.906 290.846,173.200 291.002,173.200 290.424 C 173.200 290.217,173.380 289.936,173.600 289.800 C 174.398 289.307,174.002 288.771,173.169 289.217 C 172.015 289.834,170.932 289.405,171.604 288.595 C 171.876 288.268,172.346 288.000,172.649 288.000 C 172.952 288.000,173.200 287.800,173.200 287.557 C 173.200 287.283,172.816 287.210,172.198 287.365 C 171.572 287.522,170.600 287.329,169.612 286.851 L 168.029 286.087 166.998 287.438 C 166.431 288.181,165.840 288.770,165.684 288.747 C 164.353 288.551,163.510 288.975,162.614 290.293 C 161.376 292.115,161.356 292.400,162.467 292.400 C 162.943 292.400,163.215 292.518,163.070 292.663 C 162.925 292.808,163.006 293.166,163.248 293.458 C 164.014 294.381,163.336 295.200,161.805 295.200 C 160.510 295.200,160.406 295.116,160.623 294.250 C 160.844 293.370,158.421 292.246,157.750 292.917 C 157.407 293.260,158.099 294.386,158.500 294.138 C 158.772 293.970,158.824 294.250,158.651 294.940 L 158.385 296.000 160.992 296.000 C 162.975 296.000,163.600 295.864,163.600 295.433 C 163.600 295.122,163.796 294.801,164.035 294.722 C 164.497 294.568,164.132 291.600,163.658 291.661 C 162.933 291.755,162.811 291.526,163.200 290.800 C 163.435 290.360,163.989 290.000,164.430 290.000 C 165.173 290.000,167.480 288.637,168.045 287.865 C 168.611 287.092,170.199 287.794,170.324 288.873 C 170.418 289.691,170.727 290.008,171.619 290.204 C 172.264 290.346,172.894 290.628,173.019 290.831 C 173.145 291.034,173.846 291.200,174.577 291.200 C 175.597 291.200,175.959 291.398,176.129 292.051 C 176.312 292.751,176.552 292.857,177.476 292.649 C 180.880 291.880,181.223 291.879,181.786 292.645 C 182.319 293.371,182.388 293.354,183.570 292.225 C 184.247 291.579,184.816 291.174,184.836 291.325 C 184.856 291.476,184.873 292.140,184.873 292.800 C 184.873 293.460,184.856 294.273,184.836 294.606 C 184.816 294.940,184.170 295.513,183.400 295.881 C 182.411 296.352,182.000 296.813,182.000 297.450 C 182.000 297.947,181.789 298.483,181.532 298.642 C 181.221 298.834,181.356 299.040,181.932 299.253 C 183.021 299.656,183.066 300.400,182.000 300.400 C 181.560 300.400,181.200 300.580,181.200 300.800 C 181.200 301.020,181.380 301.200,181.600 301.200 C 182.313 301.200,182.023 302.069,181.242 302.273 C 180.667 302.424,180.489 302.824,180.506 303.936 C 180.535 305.919,180.160 309.018,179.826 309.559 C 179.479 310.119,179.712 310.114,180.981 309.536 C 182.135 309.010,182.274 308.591,181.407 308.258 C 180.185 307.789,181.666 302.593,183.255 301.771 C 184.067 301.352,184.431 300.796,184.612 299.699 C 184.749 298.875,185.047 297.708,185.276 297.107 C 185.504 296.506,185.586 295.741,185.458 295.407 C 185.289 294.965,185.494 294.800,186.213 294.800 C 187.132 294.800,190.400 291.986,190.400 291.195 C 190.400 290.467,191.629 290.508,192.596 291.268 C 193.924 292.313,193.971 292.250,194.084 289.241 C 194.206 285.982,191.984 283.788,190.800 286.000 C 190.215 287.094,189.735 287.004,189.307 285.720 C 189.109 285.126,188.842 284.811,188.713 285.020 M153.477 286.579 C 152.184 287.722,151.946 288.975,153.166 288.221 C 153.661 287.915,155.417 290.820,155.269 291.699 C 155.203 292.084,155.341 292.400,155.575 292.400 C 155.809 292.400,156.012 292.265,156.027 292.100 C 156.042 291.935,156.128 291.234,156.219 290.542 C 156.321 289.768,156.166 289.103,155.816 288.813 C 155.503 288.554,155.346 288.085,155.467 287.771 C 155.614 287.388,155.408 287.200,154.843 287.200 C 153.774 287.200,153.745 286.535,154.800 286.200 C 155.240 286.060,155.600 285.778,155.600 285.573 C 155.600 284.929,155.049 285.190,153.477 286.579 M193.374 287.300 C 193.816 289.399,193.288 291.514,192.600 290.400 C 192.111 289.609,189.559 290.233,188.750 291.343 C 188.613 291.531,188.390 291.507,188.255 291.290 C 188.121 291.072,188.368 290.439,188.805 289.884 C 189.242 289.328,189.600 288.632,189.601 288.337 C 189.603 286.870,193.082 285.914,193.374 287.300 M190.400 288.800 C 190.400 289.306,191.217 289.306,192.000 288.800 C 192.468 288.498,192.357 288.411,191.500 288.406 C 190.895 288.403,190.400 288.580,190.400 288.800 M190.493 295.452 C 190.334 298.177,189.520 298.776,187.931 297.338 C 187.094 296.580,186.821 297.461,187.640 298.280 C 187.961 298.601,187.845 298.795,187.217 298.995 C 186.280 299.292,186.176 301.034,187.100 300.960 C 187.375 300.938,188.249 300.893,189.043 300.860 C 190.147 300.814,190.432 300.659,190.255 300.200 C 190.115 299.835,190.255 299.600,190.613 299.600 C 190.936 299.600,191.200 299.858,191.200 300.173 C 191.200 300.887,192.903 301.491,193.116 300.853 C 193.333 300.201,194.615 300.295,195.206 301.007 C 195.625 301.512,195.518 301.778,194.562 302.599 C 193.164 303.800,192.831 306.000,194.047 306.000 C 194.533 306.000,194.800 305.717,194.800 305.200 C 194.800 304.348,195.383 304.126,195.809 304.815 C 196.290 305.593,193.720 307.797,193.015 307.212 C 192.489 306.776,192.400 306.850,192.400 307.720 C 192.400 308.280,191.979 309.247,191.464 309.869 C 190.949 310.491,190.017 311.900,189.392 313.000 C 188.768 314.100,188.199 315.075,188.128 315.167 C 187.821 315.564,186.000 314.201,186.000 313.575 C 186.000 312.205,184.838 312.444,182.862 314.220 C 180.641 316.217,180.213 316.346,179.600 315.200 C 179.365 314.760,178.818 314.400,178.386 314.400 C 177.954 314.400,177.247 314.047,176.815 313.615 C 176.383 313.183,175.930 312.990,175.808 313.187 C 175.590 313.540,177.070 314.800,177.702 314.800 C 177.881 314.800,178.642 315.415,179.394 316.168 C 180.721 317.494,182.565 317.800,182.314 316.652 C 182.204 316.151,183.955 314.000,184.472 314.000 C 184.652 314.000,184.800 314.283,184.800 314.630 C 184.800 314.985,185.494 315.551,186.396 315.930 C 187.274 316.298,187.994 316.825,187.996 317.100 C 188.001 317.765,188.590 317.735,189.168 317.039 C 189.525 316.608,189.513 316.429,189.117 316.266 C 188.756 316.118,188.922 315.759,189.669 315.073 C 190.257 314.533,191.194 313.216,191.750 312.146 C 192.508 310.689,192.767 310.426,192.781 311.100 C 192.802 312.114,193.071 312.181,194.666 311.575 C 195.989 311.072,196.493 310.394,195.994 309.792 C 195.529 309.233,197.043 306.681,197.708 306.903 C 197.974 306.991,198.387 307.759,198.626 308.608 C 199.208 310.685,199.654 309.820,199.152 307.586 C 198.877 306.361,198.885 305.772,199.177 305.674 C 200.570 305.210,198.533 301.600,196.878 301.600 C 196.182 301.600,195.200 300.118,195.200 299.069 C 195.200 297.900,194.848 297.729,194.030 298.500 C 193.606 298.900,193.463 298.899,193.314 298.493 C 193.212 298.214,192.887 297.744,192.591 297.448 C 192.141 296.998,192.245 296.770,193.227 296.043 C 194.376 295.193,194.814 294.000,193.976 294.000 C 193.743 294.000,193.664 294.180,193.800 294.400 C 194.136 294.943,193.892 294.905,192.546 294.202 C 190.827 293.306,190.610 293.438,190.493 295.452 M192.800 295.400 C 192.800 295.781,192.417 296.000,191.751 296.000 C 190.864 296.000,190.779 295.907,191.200 295.400 C 191.474 295.070,191.946 294.800,192.249 294.800 C 192.552 294.800,192.800 295.070,192.800 295.400 M189.200 299.613 C 189.200 300.128,188.060 300.594,187.694 300.228 C 187.545 300.079,187.688 299.789,188.012 299.584 C 188.786 299.095,189.200 299.105,189.200 299.613 M197.491 302.673 C 197.719 303.358,196.029 304.189,195.494 303.654 C 195.201 303.361,195.233 303.043,195.600 302.600 C 196.183 301.897,197.247 301.938,197.491 302.673 M183.476 307.774 C 183.078 308.076,182.898 308.409,183.076 308.515 C 183.551 308.795,185.200 308.095,185.200 307.613 C 185.200 307.039,184.340 307.119,183.476 307.774 M182.880 309.680 C 182.227 310.333,182.277 310.800,183.000 310.800 C 183.330 310.800,183.600 310.725,183.600 310.633 C 183.600 310.541,183.709 310.181,183.843 309.833 C 184.129 309.086,183.564 308.996,182.880 309.680 M199.420 310.748 C 200.206 311.469,202.197 311.719,201.621 311.025 C 201.336 310.681,200.638 310.400,200.071 310.400 C 199.461 310.400,199.195 310.542,199.420 310.748 " stroke="none" fill="#040404" fill-rule="evenodd"></path><path id="path3" d="M201.884 256.800 C 201.769 257.240,201.869 257.600,202.106 257.600 C 202.343 257.600,202.866 257.898,203.269 258.262 C 203.956 258.884,204.000 258.872,204.000 258.062 C 204.000 257.588,203.801 257.200,203.557 257.200 C 203.314 257.200,203.218 256.930,203.345 256.600 C 203.498 256.200,203.328 256.000,202.834 256.000 C 202.427 256.000,201.999 256.360,201.884 256.800 M206.000 261.976 C 206.000 262.429,206.180 262.800,206.400 262.800 C 206.620 262.800,206.800 262.541,206.800 262.224 C 206.800 261.907,206.620 261.536,206.400 261.400 C 206.180 261.264,206.000 261.523,206.000 261.976 M203.200 266.369 L 201.800 266.634 203.036 266.838 C 203.716 266.951,204.481 266.973,204.736 266.888 C 205.241 266.720,205.389 265.967,204.900 266.053 C 204.735 266.082,203.970 266.224,203.200 266.369 M218.503 267.321 C 218.557 267.718,218.760 268.017,218.955 267.987 C 219.151 267.957,219.463 268.172,219.649 268.466 C 219.835 268.760,219.988 268.820,219.988 268.600 C 219.988 267.849,219.218 266.899,219.178 267.600 C 219.155 268.012,219.028 267.949,218.775 267.400 C 218.467 266.730,218.423 266.718,218.503 267.321 M202.627 267.559 C 202.144 267.748,202.018 267.964,202.290 268.132 C 202.816 268.457,204.000 268.059,204.000 267.557 C 204.000 267.141,203.693 267.141,202.627 267.559 M204.700 269.052 C 205.816 269.852,205.832 270.248,204.774 270.814 C 204.162 271.142,203.801 271.133,203.374 270.779 C 203.058 270.517,202.800 270.461,202.800 270.655 C 202.800 271.514,204.288 271.954,205.150 271.350 C 206.328 270.525,206.216 269.419,204.900 268.867 C 203.815 268.413,203.813 268.416,204.700 269.052 M216.180 270.109 C 216.035 270.486,215.767 270.704,215.586 270.591 C 215.404 270.479,215.142 270.570,215.004 270.793 C 214.866 271.017,215.033 271.200,215.376 271.200 C 216.121 271.200,216.180 271.660,215.520 272.320 C 215.147 272.693,215.147 272.800,215.520 272.800 C 215.784 272.800,216.000 272.632,216.000 272.426 C 216.000 272.221,216.450 272.135,217.000 272.234 C 217.561 272.336,218.000 272.226,218.000 271.984 C 218.000 271.747,217.820 271.664,217.600 271.800 C 217.380 271.936,217.197 271.722,217.194 271.324 C 217.184 270.100,216.498 269.279,216.180 270.109 M193.838 275.377 C 193.627 276.185,193.623 276.185,193.026 275.394 C 192.514 274.717,192.424 274.699,192.413 275.267 C 192.406 275.633,192.175 276.024,191.900 276.135 C 191.625 276.246,191.805 276.351,192.300 276.368 C 193.497 276.410,193.451 277.387,192.200 278.475 C 191.245 279.305,190.757 280.721,191.607 280.196 C 191.830 280.058,191.927 279.806,191.822 279.636 C 191.717 279.466,192.164 278.933,192.816 278.452 C 193.467 277.970,194.000 277.221,194.000 276.788 C 194.000 275.678,194.730 275.808,195.280 277.016 C 195.743 278.032,197.037 278.247,196.960 277.295 C 196.938 277.023,196.893 276.370,196.860 275.844 C 196.777 274.514,194.169 274.111,193.838 275.377 M170.584 275.227 C 170.439 275.461,170.420 275.753,170.543 275.876 C 170.872 276.205,172.000 275.691,172.000 275.213 C 172.000 274.670,170.921 274.680,170.584 275.227 M196.400 276.400 C 196.400 277.060,196.316 277.600,196.214 277.600 C 195.830 277.600,195.173 275.968,195.405 275.592 C 195.888 274.811,196.400 275.227,196.400 276.400 M177.824 276.987 C 178.251 277.310,178.870 277.574,179.200 277.573 C 179.548 277.572,179.380 277.332,178.800 277.000 C 177.485 276.248,176.836 276.240,177.824 276.987 M181.913 278.523 C 182.467 278.772,182.970 278.790,183.191 278.567 C 183.413 278.345,183.052 278.182,182.278 278.156 C 181.088 278.114,181.063 278.140,181.913 278.523 M217.432 280.349 C 217.278 280.597,217.343 280.800,217.576 280.800 C 217.809 280.800,218.014 281.115,218.032 281.500 C 218.049 281.892,218.150 281.987,218.260 281.715 C 218.543 281.018,217.788 279.773,217.432 280.349 M209.777 280.967 C 209.350 281.279,209.107 281.640,209.236 281.770 C 209.366 281.899,209.798 281.644,210.198 281.202 C 211.048 280.263,210.873 280.166,209.777 280.967 M183.776 281.387 C 183.107 281.894,183.092 281.976,183.667 281.987 C 184.694 282.007,185.620 281.557,185.374 281.158 C 185.063 280.654,184.671 280.710,183.776 281.387 M208.800 282.944 C 208.800 283.305,208.658 283.600,208.485 283.600 C 208.312 283.600,208.141 283.989,208.105 284.464 C 208.069 284.939,207.806 285.476,207.520 285.658 C 207.141 285.899,207.204 285.989,207.756 285.994 C 208.172 285.997,208.723 286.289,208.982 286.643 C 210.137 288.223,210.930 285.427,209.799 283.760 C 209.205 282.885,208.800 282.554,208.800 282.944 M210.000 284.800 C 210.000 285.020,209.730 285.200,209.400 285.200 C 209.070 285.200,208.800 285.020,208.800 284.800 C 208.800 284.580,209.070 284.400,209.400 284.400 C 209.730 284.400,210.000 284.580,210.000 284.800 M217.600 286.691 C 216.771 287.005,215.031 288.765,215.292 289.025 C 215.409 289.142,215.803 288.940,216.167 288.576 C 216.531 288.212,217.273 287.888,217.814 287.857 C 218.464 287.819,218.800 287.562,218.800 287.100 C 218.800 286.373,218.610 286.308,217.600 286.691 M206.593 287.988 C 206.725 288.202,206.555 288.913,206.216 289.568 C 205.877 290.224,205.600 291.287,205.600 291.931 C 205.600 292.575,205.330 293.326,205.000 293.600 C 204.670 293.874,204.400 294.604,204.400 295.223 C 204.400 295.842,204.224 296.810,204.010 297.374 C 203.795 297.938,203.774 298.400,203.963 298.400 C 204.152 298.400,204.401 298.760,204.516 299.200 C 204.631 299.640,204.967 299.997,205.263 299.994 C 205.670 299.989,205.655 299.896,205.200 299.607 C 204.306 299.041,204.533 294.386,205.488 293.687 C 205.940 293.356,206.146 292.765,206.068 292.019 C 206.001 291.384,206.228 290.318,206.573 289.652 C 207.305 288.237,207.368 287.600,206.776 287.600 C 206.543 287.600,206.461 287.775,206.593 287.988 M215.600 289.825 C 215.600 289.953,215.879 290.336,216.219 290.676 C 217.025 291.482,216.696 291.787,215.634 291.218 C 215.175 290.973,214.800 290.937,214.800 291.139 C 214.800 291.463,216.068 291.979,216.900 291.995 C 217.538 292.006,217.159 290.567,216.400 290.093 C 215.960 289.818,215.600 289.698,215.600 289.825 M215.016 292.968 C 215.388 293.536,215.581 294.022,215.446 294.050 C 215.311 294.078,215.035 294.123,214.833 294.150 C 214.632 294.178,214.340 294.326,214.186 294.481 C 213.812 294.855,215.837 295.348,216.377 295.014 C 216.890 294.697,216.942 293.600,216.444 293.600 C 216.249 293.600,216.114 293.285,216.144 292.900 C 216.180 292.451,215.867 292.153,215.270 292.068 C 214.359 291.939,214.354 291.957,215.016 292.968 M212.597 295.479 C 212.736 297.478,212.794 297.651,213.232 297.380 C 213.481 297.226,213.554 296.665,213.404 296.056 C 213.029 294.537,212.505 294.162,212.597 295.479 M213.697 298.707 C 213.630 299.666,213.673 299.710,214.052 299.061 C 214.302 298.632,214.334 298.174,214.128 297.968 C 213.922 297.762,213.741 298.071,213.697 298.707 M209.732 299.034 C 209.601 299.375,209.698 299.858,209.947 300.107 C 210.284 300.444,210.400 300.441,210.400 300.093 C 210.400 299.835,210.672 299.729,211.005 299.857 C 211.428 300.020,211.539 299.905,211.374 299.475 C 211.032 298.585,210.009 298.310,209.732 299.034 M212.978 300.891 C 213.434 301.147,213.813 301.147,214.069 300.891 C 214.324 300.636,214.080 300.500,213.369 300.500 C 212.448 300.500,212.387 300.561,212.978 300.891 M203.505 301.083 C 204.002 301.179,204.722 301.175,205.105 301.075 C 205.487 300.975,205.080 300.896,204.200 300.901 C 203.320 300.905,203.007 300.987,203.505 301.083 M208.301 308.195 C 208.406 308.743,208.634 309.103,208.808 308.995 C 209.185 308.762,208.838 307.200,208.409 307.200 C 208.245 307.200,208.197 307.648,208.301 308.195 " stroke="none" fill="#1c1c1c" fill-rule="evenodd"></path><path id="path4" d="" stroke="none" fill="#0c0c0c" fill-rule="evenodd"></path></g></svg>